<mxfile host="65bd71144e">
    <diagram id="bqc8EfYDvOZ29hWm9X8n" name="Page-1">
        <mxGraphModel dx="1635" dy="472" grid="1" gridSize="10" guides="1" tooltips="1" connect="1" arrows="1" fold="1" page="1" pageScale="1" pageWidth="827" pageHeight="1169" math="0" shadow="0">
            <root>
                <mxCell id="0"/>
                <mxCell id="1" parent="0"/>
                <mxCell id="2" value="" style="ellipse;html=1;shape=endState;fillColor=#000000;strokeColor=#000000;" vertex="1" parent="1">
                    <mxGeometry x="40" y="40" width="30" height="30" as="geometry"/>
                </mxCell>
                <mxCell id="7" value="" style="edgeStyle=none;html=1;" edge="1" parent="1" source="3" target="2">
                    <mxGeometry relative="1" as="geometry"/>
                </mxCell>
                <mxCell id="3" value="Action1" style="html=1;align=center;verticalAlign=top;rounded=1;absoluteArcSize=1;arcSize=10;dashed=0;" vertex="1" parent="1">
                    <mxGeometry x="-15" y="110" width="140" height="40" as="geometry"/>
                </mxCell>
                <mxCell id="4" value="" style="rhombus;" vertex="1" parent="1">
                    <mxGeometry x="40" y="220" width="30" height="30" as="geometry"/>
                </mxCell>
                <mxCell id="5" value="" style="endArrow=open;startArrow=none;endFill=0;startFill=0;endSize=8;html=1;verticalAlign=bottom;labelBackgroundColor=none;strokeWidth=1;entryX=0.5;entryY=0;entryDx=0;entryDy=0;exitX=0.5;exitY=1;exitDx=0;exitDy=0;" edge="1" parent="1" source="3" target="4">
                    <mxGeometry width="160" relative="1" as="geometry">
                        <mxPoint x="50" y="150" as="sourcePoint"/>
                        <mxPoint x="210" y="150" as="targetPoint"/>
                    </mxGeometry>
                </mxCell>
            </root>
        </mxGraphModel>
    </diagram>
</mxfile>